PathFileType	4	(X/Y/Z)
DataRate	CameraRate	NumFrames	NumMarkers	Units	OrigDataRate	OrigDataStartFrame	OrigNumFrames	
  100.0	  100.0	    5	     56	     mm	  100.0	      32	    253
Frame#	Time	LASI			RASI			LPSI			RPSI			RTH1			RTH2			RTH3			RLFC			RMFC			LTH1			LTH2			LTH3			LLFC			LMFC			RTB1			RTB2			RTB3			RLMAL			RMMAL			LTB1			LTB2			LTB3			LMMAL			LLMAL			RCAL			RTOE			RMT5			LCAL			LTOE			LMT5			LACR			RACR			CLAV			C7			LASH			LPSH			RASH			RPSH			RUA1			RUA2			RUA3			RLEL			RMEL			LUA1			LUA2			LUA3			LLEL			LMEL			RFAsuperior			RFAradius			RFAulna			LFAsuperior			LFAradius			LFAulna			RHJC			LHJC			
		X1	Y1	Z1	X2	Y2	Z2	X3	Y3	Z3	X4	Y4	Z4	X5	Y5	Z5	X6	Y6	Z6	X7	Y7	Z7	X8	Y8	Z8	X9	Y9	Z9	X10	Y10	Z10	X11	Y11	Z11	X12	Y12	Z12	X13	Y13	Z13	X14	Y14	Z14	X15	Y15	Z15	X16	Y16	Z16	X17	Y17	Z17	X18	Y18	Z18	X19	Y19	Z19	X20	Y20	Z20	X21	Y21	Z21	X22	Y22	Z22	X23	Y23	Z23	X24	Y24	Z24	X25	Y25	Z25	X26	Y26	Z26	X27	Y27	Z27	X28	Y28	Z28	X29	Y29	Z29	X30	Y30	Z30	X31	Y31	Z31	X32	Y32	Z32	X33	Y33	Z33	X34	Y34	Z34	X35	Y35	Z35	X36	Y36	Z36	X37	Y37	Z37	X38	Y38	Z38	X39	Y39	Z39	X40	Y40	Z40	X41	Y41	Z41	X42	Y42	Z42	X43	Y43	Z43	X44	Y44	Z44	X45	Y45	Z45	X46	Y46	Z46	X47	Y47	Z47	X48	Y48	Z48	X49	Y49	Z49	X50	Y50	Z50	X51	Y51	Z51	X52	Y52	Z52	X53	Y53	Z53	X54	Y54	Z54	X55	Y55	Z55	X56	Y56	Z56	

49	0.49000	506.15006	1050.03955	-632.59256	525.04511	1043.70211	-361.65337	338.24767	1066.12468	-538.45071	344.83648	1062.82158	-440.19533	421.96239	861.47795	-304.82177	503.17136	759.69963	-305.94815	426.30722	639.38035	-320.18001	465.21026	520.07328	-314.04816	454.86695	509.12530	-438.79695	427.55098	862.75094	-678.86512	500.51349	737.21354	-682.24807	444.52385	617.86207	-672.67704	464.17463	526.44393	-676.66923	455.42851	517.06640	-550.60173	482.20750	389.29907	-363.96895	453.58209	341.73356	-293.01148	458.77039	225.53726	-346.49462	406.83998	113.07197	-289.27435	433.28440	120.23093	-381.02696	479.93195	378.32943	-626.81736	422.30536	306.52929	-695.47403	458.18863	224.01310	-632.76254	435.81587	122.09907	-590.78258	409.16305	118.88709	-681.13854	339.26285	100.32945	-340.52631	562.52490	69.68504	-348.37856	513.11001	60.29583	-257.70990	337.84686	96.91688	-624.61439	567.87076	67.63018	-638.90010	506.89675	53.48012	-723.85096	580.56570	1517.11461	-645.55664	602.62046	1498.68944	-348.63652	628.00087	1413.34894	-472.18052	547.59919	1528.64804	-492.73383	612.92515	1445.59229	-660.04100	495.84826	1494.84981	-669.55496	615.70212	1423.00004	-343.26150	503.49097	1495.18144	-318.97063	551.49039	1488.08181	-248.16353	490.92996	1423.32614	-224.63789	524.12267	1428.59150	-150.36006	505.57843	1388.74742	-47.02263	482.92763	1318.29559	-85.27978	521.63337	1488.92222	-740.56242	482.02196	1405.00802	-764.50294	489.26065	1407.40924	-852.09557	500.66451	1375.91582	-937.34521	488.03276	1310.28370	-896.28190	614.57386	1374.53608	-43.61107	761.04884	1338.55966	-69.05693	740.48693	1272.34657	-57.50043	612.14454	1362.66839	-955.05832	763.44887	1324.39233	-943.58029	750.06145	1254.63721	-944.66140	447.46598	955.56322	-399.88264	439.99285	966.73302	-574.54870	
50	0.50000	506.18913	1050.02204	-632.59067	525.04503	1043.70398	-361.67437	339.47440	1065.80209	-538.94520	344.88115	1062.77361	-440.14934	421.98445	861.47591	-304.81178	503.19119	759.68304	-305.94527	426.30289	639.36763	-320.17172	465.24094	520.09458	-314.01930	454.86036	509.12320	-438.79814	428.63164	862.82855	-679.98188	500.94471	737.15790	-682.19505	445.70377	618.10722	-673.91771	464.56396	526.42921	-676.61225	455.43212	517.05532	-550.59783	482.69104	389.34006	-363.91133	453.58400	341.70158	-292.99804	459.16851	225.61823	-346.40670	406.85529	113.07744	-289.25528	433.95951	120.34385	-380.93557	480.32942	378.37270	-626.75099	423.29204	306.68667	-696.24694	459.52746	224.65108	-634.34435	435.82421	122.08652	-590.78864	410.15054	118.76349	-681.38783	339.25937	100.31917	-340.50382	563.54593	70.31900	-347.73217	513.69649	59.76888	-257.77314	338.77170	96.70100	-624.83113	568.86567	68.03469	-638.32666	508.09459	53.83524	-723.16680	580.92538	1517.03354	-645.51245	602.68463	1498.69857	-348.60104	628.42079	1413.24143	-472.00654	548.02725	1528.54334	-492.56703	613.33857	1445.46748	-659.93729	496.35859	1494.62302	-669.69114	615.76316	1423.00173	-343.22654	503.55281	1495.17764	-318.95458	551.72188	1488.00073	-248.12539	490.95416	1423.28789	-224.62947	524.12008	1428.57587	-150.36716	505.75344	1388.67668	-47.01118	482.89111	1318.27535	-85.29287	522.16096	1488.70339	-740.87997	483.10038	1404.78282	-764.96620	490.35078	1407.18292	-852.57997	501.56457	1375.70504	-937.96147	488.15031	1310.27835	-896.29641	614.57587	1374.47310	-43.60283	761.05576	1338.52249	-69.03306	740.45835	1272.30043	-57.49545	612.61162	1362.55902	-955.01362	763.91268	1324.29505	-943.47701	750.52072	1254.56146	-944.55410	447.65440	955.50289	-399.96576	440.35961	966.64753	-574.63655	
51	0.51000	506.23665	1050.00284	-632.58793	525.06318	1043.70623	-361.68825	340.80145	1065.38843	-539.44895	344.91135	1062.75455	-440.18971	421.98933	861.47213	-304.81867	503.19389	759.67046	-305.95591	426.29648	639.35321	-320.20263	465.22508	520.07642	-314.00284	454.85390	509.12181	-438.79891	429.85135	862.92462	-681.24498	501.42525	737.10790	-682.13269	447.03627	618.39456	-675.35664	465.02937	526.40786	-676.54760	455.40192	517.02882	-550.59831	483.16545	389.39589	-363.84136	453.52161	341.69412	-293.02399	459.56229	225.68852	-346.34856	406.83296	113.06817	-289.25889	434.30387	120.36696	-380.92080	480.65195	378.37170	-626.73132	424.14995	306.83869	-697.01464	460.91529	225.36207	-636.26984	435.81561	122.07816	-590.80935	411.80883	118.33355	-681.44471	339.25211	100.30064	-340.52660	564.79919	70.92445	-347.13873	514.44384	59.64649	-257.88907	339.85932	96.34857	-625.02585	570.17068	68.59082	-637.60941	509.17261	54.14167	-722.62967	581.35514	1516.91085	-645.46354	602.72195	1498.73887	-348.56986	628.87760	1413.13316	-471.83533	548.49221	1528.43793	-492.40302	613.83240	1445.30720	-659.81369	496.93694	1494.39780	-669.87340	615.76903	1423.02028	-343.22552	503.62316	1495.19013	-318.93069	551.98774	1487.90819	-248.08359	490.95244	1423.29118	-224.63394	524.10621	1428.56987	-150.36689	505.96703	1388.59304	-46.99494	482.81606	1318.25114	-85.25145	522.71898	1488.47933	-741.21789	484.31197	1404.51367	-765.45310	491.56201	1406.87580	-853.06936	502.53877	1375.44677	-938.62373	488.26083	1310.26230	-896.30453	614.55024	1374.43718	-43.59522	761.04583	1338.49919	-69.01090	740.46891	1272.27175	-57.47201	613.14734	1362.41992	-954.95459	764.41140	1324.18666	-943.34683	751.00190	1254.48288	-944.42046	447.85380	955.43384	-400.06338	440.78738	966.54712	-574.73932	
52	0.52000	506.29563	1049.98756	-632.58514	525.09499	1043.70384	-361.69152	341.98936	1065.04282	-539.89771	344.92225	1062.81576	-440.25525	421.99055	861.48304	-304.84236	503.18403	759.68167	-305.98137	426.29849	639.36222	-320.25303	465.17815	520.04811	-314.01420	454.85558	509.12365	-438.80012	430.95511	863.01478	-682.37947	501.84013	737.07478	-682.07151	448.21108	618.65430	-676.65164	465.46482	526.38769	-676.49768	455.38932	517.01955	-550.60050	483.49422	389.44935	-363.78554	453.45495	341.72678	-293.06820	459.82087	225.71819	-346.35007	406.80103	113.07034	-289.27968	434.05712	120.23704	-381.03259	480.76527	378.33519	-626.78975	424.54432	306.92376	-697.52595	461.97663	225.95917	-638.10185	435.79447	122.09597	-590.84462	413.82206	117.76269	-681.38606	339.24556	100.29265	-340.59835	565.84564	71.22140	-346.87914	515.09266	59.65892	-258.05271	340.85956	95.97721	-625.21299	571.34169	69.09370	-637.00973	509.87049	54.31771	-722.36315	581.74334	1516.78306	-645.43901	602.67526	1498.78022	-348.59774	629.26765	1413.05567	-471.70637	548.89038	1528.36327	-492.28126	614.30290	1445.15038	-659.69877	497.45115	1494.24933	-670.07668	615.71243	1423.05803	-343.26484	503.65219	1495.23168	-318.93266	552.23422	1487.83710	-248.04478	490.91924	1423.35053	-224.65534	524.07980	1428.58797	-150.36688	506.16036	1388.53255	-46.98729	482.79697	1318.24713	-85.22118	523.18885	1488.31379	-741.50541	485.42930	1404.30369	-765.93111	492.69458	1406.63427	-853.53667	503.40769	1375.22183	-939.21189	488.36637	1310.25058	-896.31684	614.50044	1374.45292	-43.59391	761.01330	1338.49610	-68.99581	740.55227	1272.27517	-57.41642	613.64883	1362.28390	-954.89353	764.85300	1324.09324	-943.21069	751.41472	1254.42408	-944.28733	448.00118	955.39252	-400.15310	441.16364	966.47830	-574.83342	
53	0.53000	506.35905	1049.97862	-632.58124	525.09392	1043.69937	-361.70527	342.81669	1064.87981	-540.22743	344.91936	1062.92520	-440.28331	421.99877	861.51033	-304.87253	503.17217	759.71198	-306.00789	426.30265	639.39302	-320.28828	465.14301	520.04274	-314.04657	454.86863	509.12797	-438.80344	431.70054	863.07595	-683.11218	502.11240	737.06164	-682.02421	448.96121	618.81953	-677.47219	465.77363	526.38019	-676.47332	455.41791	517.03963	-550.60350	483.65865	389.48672	-363.75551	453.44171	341.77402	-293.09824	459.92383	225.71541	-346.38461	406.78314	113.09411	-289.30471	433.56304	120.05951	-381.18280	480.72109	378.30750	-626.88462	424.51880	306.92718	-697.69001	462.53716	226.31125	-639.33060	435.77102	122.13350	-590.87836	415.45920	117.36709	-681.34956	339.24580	100.30568	-340.67898	566.39348	71.19756	-346.94009	515.39858	59.44207	-258.20940	341.53741	95.73546	-625.37247	572.03631	69.38149	-636.69018	510.21739	54.38673	-722.27534	581.99636	1516.69462	-645.44552	602.57324	1498.79700	-348.67528	629.51936	1413.02218	-471.62924	549.15020	1528.33259	-492.21135	614.64364	1445.04420	-659.61433	497.79350	1494.21278	-670.22746	615.64254	1423.10333	-343.31258	503.63220	1495.29098	-318.96008	552.40386	1487.80978	-248.01511	490.86978	1423.43044	-224.68263	524.05325	1428.62290	-150.36899	506.27740	1388.51464	-46.99182	482.90636	1318.25155	-85.26805	523.49237	1488.23823	-741.67732	486.21977	1404.22675	-766.31723	493.52521	1406.55763	-853.90918	504.01835	1375.09949	-939.61172	488.47399	1310.25322	-896.33840	614.44820	1374.49973	-43.59528	760.97325	1338.50438	-68.98169	740.66155	1272.29861	-57.34493	614.02307	1362.19132	-954.84589	765.17463	1324.03632	-943.09331	751.71002	1254.39581	-944.17687	448.06332	955.39065	-400.21878	441.38625	966.46136	-574.90256	
